/* XPM */
static char *_974b80676bb4b75984d362a2419d092lLbZjSVGFZLQkwV8[] = {
/* columns rows colors chars-per-pixel */
"32 32 18 1 ",
"  c None",
". c #0E0E10",
"X c #191919",
"o c #2E2300",
"O c #303032",
"+ c gray20",
"@ c #323234",
"# c #4A3A08",
"$ c #444444",
"% c gray29",
"& c #525254",
"* c #545456",
"= c #686868",
"- c #6D6D6E",
"; c #737375",
": c #808080",
"> c #939397",
", c #AEAEB2",
/* pixels */
"                                ",
"                                ",
"             XXXXXXX            ",
"           XX++%%%++XX          ",
"          X+%%=====%%+X         ",
"         X+%==:::::==%+X        ",
"         X%==:::::::==%X        ",
"        X+%=:::::::::=%+X       ",
"        X%==:::::::::==%X       ",
"        X%==:::::::::==%X       ",
"        X%==:::::::::==%X;      ",
"        X%===:::::::===%X;      ",
"        X%%===========%%X;      ",
"        X++=%%%%%%%%%=++X;      ",
"        X++%%+++++++%%++X;      ",
"         X+++XXXXXXX+++X,;      ",
"   ..    @@XXXX+%+XXXX@@,;      ",
"   .+.. X@$@@+X+++X+@@$$@;      ",
"   .O;O..@*$$@@@@@@@$$$$$@      ",
"   .oO;>.*-*$$$$$$$$$$$$$@      ",
"   .o#o>.*-**$$****$$*$$$$@.    ",
"   .O#o>.--**$*-***$$**$$$@.    ",
"   .+;;>.--**$*---**$**$$$@     ",
"   .o&;>.---*$*----*$$**$$$@    ",
"   .o#o>.---*$------*$**$$$$@   ",
"   .+#o>.---**-------****$$$@   ",
"    .#;.----*---------***$$@    ",
"    .;O.-------*-------*$$$@    ",
"     ..$*----****-----**@@@     ",
"       @@$$$$******$$$@@        ",
"                                ",
"                                "
};
