/* XPM */
static char *_639148583870[] = {
/* columns rows colors chars-per-pixel */
"32 32 18 1 ",
"  c #2E1E22",
". c #323234",
"X c #45321D",
"o c #433C2F",
"O c #534721",
"+ c #6C4F2D",
"@ c #545456",
"# c #685F41",
"$ c #77584A",
"% c #767678",
"& c #8B5E4A",
"* c #A26E46",
"= c #A77E5D",
"- c #B69866",
"; c #979799",
": c #B7B7BB",
"> c #C3B380",
", c None",
/* pixels */
",,,,,,,,,,,,,,,,,,,,,,,,,,,,,,,,",
",,,,,,,,,,,,,.......,,,,,,,,,,,,",
",,,,,,,,,,,..@@%%%@@..,,,,,,,,,,",
",,,,,,,,,,.@%%;;;;;%%@.,,,,,,,,,",
",,,,,,,,;.@%;;;:::;;;%@.,,,,,,,,",
",,,,,,,;.@%;;;:::::;;;%@.,,,,,,,",
",,,,,,,.@%;;;:::::::;;;%@.,,,,,,",
",,,,,,,.%%;;;:::::::;;;%%.,,,,,,",
",,,,,,.@%;;;;;:::::;;;;;%@.,,,,,",
",,,,,,..@%;;%%...%;;;;;;%@.,,,,,",
",,,,,.@;.@@@@@;;%.%;;;;;%@.,,,,,",
",,,,,.@%;;::::::;%.@@%;%%@.,,,,,",
",,,,,,.@%%;;;;% :%@:;@%%%@.,,,,,",
",,,,,..        @:@:@@;.%@@.,,,,,",
",,,,,.@       @:;@;..%.@@@.,,,,,",
",,,,,,.@%;;;:::;@.;..@.@@@.,,,,,",
",,,,,,,..@%%;;%@>..%@.@@@.,,,,,,",
",,,,,,,,,X*->>>>>.@..@@@.,,,,,,,",
",,,,,,,,,oX+**---.@%@@@@.,,,,,,,",
",,,,,,,,,o#XXXXXXX.@%:;%@.,,,,,,",
",,,,,,,,,,.@%%;%@.%......,,,,,,,",
",,,,,,,,,,.@%;::%@::;@.,,,,,,,,,",
",,,,,,,,,,..@;:;%..%;@.,,,,,,,,,",
",,,,,,,,,,.@%@...:;.%.,,,,,,,,,,",
",,,,,,,,,,,..@O==;;%.,,,,,,,,,,,",
",,,,,,,,,,,.%;O==&%@.,,,,,,,,,,,",
",,,,,,,,,,,.%;O$&$O..,,,,,,,,,,,",
",,,,,,,,,,O.@;.OOO.@O,,,,,,,,,,,",
",,,,,,,,,,O&....@&==$O,,,,,,,,,,",
",,,,,,,,,,,OOO,,O===&O,,,,,,,,,,",
",,,,,,,,,,,,,,,,,OOOO,,,,,,,,,,,",
",,,,,,,,,,,,,,,,,,,,,,,,,,,,,,,,"
};
