/* XPM */
static char *_639148630046[] = {
/* columns rows colors chars-per-pixel */
"32 32 18 1 ",
"  c #2E1E22",
". c #323234",
"X c #45321D",
"o c #433C2F",
"O c #534721",
"+ c #6C4F2D",
"@ c #545456",
"# c #77584A",
"$ c #767678",
"% c #8B5E4A",
"& c #A26E46",
"* c #A77E5D",
"= c #B69866",
"- c #979799",
"; c #B7B7BB",
": c #C3B380",
"> c #D2D2D6",
", c None",
/* pixels */
",,,,,,,,,,,,,,,,,,,,,,,,,,,,,,,,",
",,,,,,,,,,,,,.......,,,,,,,,,,,,",
",,,,,,,,,,,..@@$$$@@..,,,,,,,,,,",
",,,,,,,,,,.@$$-----$$@.,,,,,,,,,",
",,,,,,,,,.@$---;;;---$@.,,,,,,,,",
",,,,,,,,.@$---;;;;;---$@.,,,,,,,",
",,,,,,,.@$---;;;;;;;---$@.,,,,,,",
",,,,,,,.$$---;;;;;;;---$$.,,,,,,",
",,,,,,.@$-----;;;;;-----$@.,,,,,",
",,,,,,..@$--$$...$------$@.,,,,,",
",,,,,.@-.@@@@@--$.$-----$@.,,,,,",
",,,,,.@$--;;;;;;-$.@@$-$$@.,,,,,",
",,,,,,.@$$----$ ;$@;-@$$$@.,,,,,",
",,,,,..        @;@;@@-.$@@.,,,,,",
",,,,,.@       @;-@-..$.@@@.,,,,,",
",,,,,,.@$---;;;-@.-..@.@@@.,,,,,",
",,,,,,,..@$$--$@:..$@.@@@.,,,,,,",
",,,,,,,,,X&=:::::.@..@@@.,,,,,,,",
",,,,,,,,,,X+&&===.@$@@@@.,,,,,,,",
",,,,,,,,,,,XXXXXXX.@$;-$@.,,,,,,",
",,-------,.@$$-$@.$......,,,,,,,",
",->>>>>>>-.@$-;;$@-;;-.,,,,,,,,,",
",,-->>>>>-..@-;-$.-....,,,,,,,,,",
",,,,-----o.@$@@....$;-@.,,,,,,,,",
",,,,,,,,,,,..@@@@@.-$**%O,,,,,,,",
",,,,,,,,,,,.$-;@;;-O%**#Oo,,,,,,",
",,,,,,,,,,,.$--.---.O%#Ooo,,,,,,",
",,,,,,,,,,,OO%$@.$$.%OO,,,,,,,,,",
",,,,,,,,,,O**%%@O..%%O,,,,,,,,,,",
",,,,,,,,,,O***#O,,OOO,,,,,,,,,,,",
",,,,,,,,,,,OOOO,,,,,,,,,,,,,,,,,",
",,,,,,,,,,,,,,,,,,,,,,,,,,,,,,,,"
};
