/* XPM */
static char *_639148537816[] = {
/* columns rows colors chars-per-pixel */
"32 32 21 1 ",
"  c #2E1E22",
". c #323234",
"X c #45321D",
"o c #433C2F",
"O c #534721",
"+ c #6C4F2D",
"@ c #545456",
"# c #685F41",
"$ c #77584A",
"% c #767678",
"& c #8B5E4A",
"* c #A26E46",
"= c #A77E5D",
"- c #887F61",
"; c #B69866",
": c #979799",
"> c #B7B7BB",
", c #C3B380",
"< c #D2D2D6",
"1 c white",
"2 c None",
/* pixels */
"22222222222222222222222222222222",
"2222222222222.......222222222222",
"22222222222..@@%%%@@..2222222222",
"2222222222.@%%:::::%%@.222222222",
"222222222.@%:::>>>:::%@.22222222",
"22222222.@%:::>>>>>:::%@.2222222",
"2222222.@%:::>>>>>>>:::%@.222222",
"2222222.%%:::>>>>>>>:::%%.222222",
"22:222.@%:::::>>>>>:::::%@.22222",
"221:22.@%..@%%:::::%%@..%@.22222",
"221<22.@.@:..@@@@@@@..:@.@.22222",
"2211:.%.@%%::>>>>>>>::%%@.%.2222",
"2:1<1:%.@@ @%%:::::%%@ @@.%.2222",
"2:<:<:@.@:@           @:@.@.2222",
"22::<:..@%:@         @:%@...2222",
"222::o...@%::>>>>>>>::%@...22222",
"222o#o.@@..@%%:::::%%@..@@.22222",
"222o##2.@%.*;,,,,,,,;*.%@.222222",
"2222o-o%...X+*;;;;;*+X...%.22222",
"2222o-o::>%@XXXXXXXXX@:>>:%.2222",
"22222o#o::@.@%:%%%:%@.:>::@.2222",
"22222o#o@@.%:>>:::>>:%@@@@.22222",
"22222O&&O..%::%@@@%::%.>>:@.2222",
"222222OOo2...@@%:%@@..O==:%.2222",
"222222o#o.@%@..@@@..@@O==&O22222",
"222222o#o@%>:%@>>>@%>%O&&$O22222",
"2222222o#o:>..%:>:%.>:@OOO222222",
"2222222o#o>.@%.%:%.@.:.222222222",
"22222222oo.@:>:...&&&.2222222222",
"22222222222O&==$22OOO22222222222",
"22222222222O===$2222222222222222",
"22222222222222222222222222222222"
};
