/* XPM */
static char *_6d9b08f30414a6d964a6d0d468f2a7cvIDypkx8eObxrzTs[] = {
/* columns rows colors chars-per-pixel */
"32 32 24 1 ",
"  c None",
". c #0E0E10",
"X c #191919",
"o c #2E2300",
"O c #303032",
"+ c gray20",
"@ c #323234",
"# c #640A0E",
"$ c #4A3A08",
"% c #444444",
"& c gray29",
"* c #525254",
"= c #545456",
"- c #686868",
"; c #6D6D6E",
": c #737375",
"> c #971E2A",
", c #E53A52",
"< c #885D61",
"1 c #846C6E",
"2 c #FA6B73",
"3 c #808080",
"4 c #939397",
"5 c gray86",
/* pixels */
"                                ",
"                                ",
"             XXXXXXX            ",
"           XX++&&&++XX          ",
"          X+&&-----&&+X         ",
"         X+&---------&+X        ",
"         X&---33333---&X        ",
"        X+&--3333333--&+X       ",
"        X:&&-3333333-&&&X       ",
"        :5:---33333----&X       ",
"        45:333-333-333-&X       ",
"       :55:3333---3333-&X       ",
"       :55:<333333333<#&X       ",
"       :55:>><33333<>>>+X       ",
"       :55:,2,>3-3>,2,>+X       ",
"       :55:>,>1+&+1>,>&X    ..  ",
"       :55:&-3333333-&X@@ ..O.  ",
"       :55:X+X-+-+-X+X@%..O:O.  ",
"       :55:%XXXXXXXXX%%%.4:+o.  ",
"      @:55:===;+++;====-.4o$o.  ",
"      @:55:==;&3-3&;==XX.4o$+.  ",
"     ..+***+.33&&&33-&X@.4::O.  ",
"     .:::::*.+&+++&++X%@.4:*o.  ",
"    @*..O...-&XX+XX&-&X%.4o$o.  ",
"    @=X+-&X+3-+X&X+-3+X%.4o$O.  ",
"    @;;XXX%X&3&+++&3&X%%%.:$.   ",
"    @;;@%%@XX+XXXXX&3X%%@.+:.   ",
"     @;@@@ X+&+X X+-&X@@  ..    ",
"      @     XXX  +33-X          ",
"                 +333X          ",
"                                ",
"                                "
};
