/* XPM */
static char *_639143910382[] = {
/* columns rows colors chars-per-pixel */
"32 32 25 1 ",
"  c None",
". c #191919",
"X c #2E2300",
"o c #303032",
"O c gray20",
"+ c #323234",
"@ c #640A0E",
"# c #4A3A08",
"$ c #444444",
"% c gray29",
"& c #525254",
"* c #545456",
"= c #686868",
"- c #6D6D6E",
"; c #737375",
": c #971E2A",
"> c #E53A52",
", c #885D61",
"< c #846C6E",
"1 c #FA6B73",
"2 c #808080",
"3 c #939397",
"4 c #AEAEB2",
"5 c gray86",
"6 c #0E0E10",
/* pixels */
"                                ",
"                                ",
"             .......            ",
"           ..OO%%%OO..          ",
"          .O%%=====%%O.         ",
"         .O%=========%O.        ",
"         .%===22222===%.        ",
"        .O%==2222222==%O.       ",
";       .%%%=2222222=%%%.       ",
";;      .%====22222====%.       ",
";5;     .%=222=222=222=%.       ",
";55;    .%=2222===2222=%.       ",
";553    .%@,222222222,@%.       ",
";454;   .O:::,22222,:::O.       ",
" ;55;   .O:>1>:2=2:>1>:O.       ",
" ;453    .%:>:<O%O<:>:%.        ",
"  ;54;  ++.%=2222222=%.++       ",
"  ;44;  $$+.O.=O=O=.O.+$$ 666   ",
"   ;44;.%$$$.........$$666O&6   ",
"   ;44;66=****-OOO-*666&3;&o6   ",
"   6;44oO6.&*-%2=2%-6;33&X#o6   ",
"  6Oo+666O.%=22%%%226;#X#X#o6   ",
"   666..++$.OO%OOO%O6;#X#;&o6   ",
"     +&$+$.%=%..O..%6;333&oO6   ",
"    +$*++$.O2=O.%.O=6;33&X#o6   ",
"    +**+$$$.%2%OOO%26;#X#X#o6   ",
"    +*+++$$.2%.....O6&3X#X#o6   ",
"     +   ++.%=O. .O%O6&3#Xo6    ",
"           .=22O  ... 6&;&6     ",
"           .222O       666      ",
"                                ",
"                                "
};
