/* XPM */
static char *_36e32fe57784a7a8b4afb0f878907b24TRlPWPOPH89cmFi[] = {
/* columns rows colors chars-per-pixel */
"32 32 25 1 ",
"  c None",
". c #0E0E10",
"X c #191919",
"o c #2E2300",
"O c #303032",
"+ c gray20",
"@ c #323234",
"# c #640A0E",
"$ c #4A3A08",
"% c #444444",
"& c gray29",
"* c #525254",
"= c #545456",
"- c #686868",
"; c #6D6D6D",
": c #6D6D6E",
"> c #737375",
", c #971E2A",
"< c #E53A52",
"1 c #885D61",
"2 c #846C6E",
"3 c #FA6B73",
"4 c #808080",
"5 c #939397",
"6 c #AEAEB2",
/* pixels */
"                                ",
"                                ",
"             XXXXXXX            ",
"           XX++&&&++XX          ",
"          X+&&-----&&+X         ",
"         X+&---------&+X        ",
"         X&--444444---&X        ",
"    >   X+--44444444--&+X       ",
"    >>  X&-4444444444--&X       ",
"    >6> X--4------44---&X       ",
"    >6> X-4-44444-&---&&X       ",
"    >66>X&-4444444-&&&&&X       ",
"    >66>X&44441#44-+&&&+X       ",
"     >66X-441,,,44-&++++X       ",
"     >66X-4,<3<,444-&++X        ",
"      >6X&+2,<,444&++XX         ",
"      >66X&-44444&++X           ",
"       >66X+X:+-+++X            ",
"       >66>XXXXXXX@@@@.....     ",
"        >66X+=::::....*>*+.     ",
"        >66X-4::==.*>55o$O.     ",
"       .+**X&444-+.*$o$o$+.     ",
"      .***OOX++&&&.*$o$o$O.@    ",
"       ...   XX+++.*>55>*O.%@   ",
"             X+&-&.*>55>*O.%@   ",
"            XX4-&@.*$o$o$O.*@   ",
"           X-4-&XX.O>o$o$O.%@   ",
"          X44-++X X.O>$o*.%+    ",
"          X444&X  XX.+>>.%@     ",
"           XXXX      ... @      ",
"                                ",
"                                "
};
