/* XPM */
static char *b4adf1d9ce994450fd6f31d1e9e84dc6hRfvapz8DywYrieX[] = {
/* columns rows colors chars-per-pixel */
"32 32 15 1 ",
"  c None",
". c #0E0E10",
"X c #191919",
"o c #303032",
"O c gray20",
"+ c #323234",
"@ c #444444",
"# c gray29",
"$ c #525254",
"% c #545456",
"& c #686868",
"* c #6D6D6E",
"= c #737375",
"- c #808080",
"; c #AEAEB2",
/* pixels */
"                                ",
"                                ",
"             XXXXXXX            ",
"           XXOO###OOXX          ",
"          XO##&&&&&##OX         ",
"         XO#&&-----&&#OX        ",
"         X#&&-------&&#X        ",
"        XO#&---------&#OX       ",
"        X#&&---------&&#X      =",
"        X#&&---------&&#X     ==",
"        X#&&---------&&#X    =;=",
"        X#&&&-------&&&#X   =;;=",
"        X##&&&&&&&&&&&##X   =;;=",
"        XOO&#########&OOX  =;;;=",
"        XOO##OOOOOOO##OOX  =;;= ",
"         XOOOXXXXXXXOOOX   =;;= ",
"      ...++XXXXO#OXXXX++  =;;=  ",
"     .$$+@@++OXOOOXO++@+X =;;=  ",
"     .$+@@@@@+++++++@@%+OX;;=   ",
"     .$+@@@@@@@@@@@@@%*%+X;;=   ",
"     .+@@@@%@@%%%%@@%%*%+#XX..  ",
"     .+@@@%%@@%%%*%@%%**%+-#XO. ",
"     .+@@@%%@%%***%@%%***+-&X.  ",
"     +@@@%%@@%****%@%****%+#X   ",
"    +@@@@%%@%******@%*****+X    ",
"    +@@@%%%%*******%%*****%+    ",
"     +@@%%%*********%******%+   ",
"     +@@@%*******%********%@+   ",
"      +++%%*****%%%%****%@++    ",
"         ++@@@%%%%%%@@@@++      ",
"                                ",
"                                "
};
