/* XPM */
static char *_ffd75f998424b678a55598c31d46fc57x8vikjyGnbaVRNe[] = {
/* columns rows colors chars-per-pixel */
"32 32 23 1 ",
"  c None",
". c #0E0E10",
"X c #191919",
"o c #303032",
"O c gray20",
"+ c #323234",
"@ c #640A0E",
"# c #444444",
"$ c gray29",
"% c #525254",
"& c #545456",
"* c #565657",
"= c #686868",
"- c #6D6D6E",
"; c #737375",
": c #971E2A",
"> c #E53A52",
", c #885D61",
"< c #FA6B73",
"1 c #808080",
"2 c #939397",
"3 c #AEAEB2",
"4 c gray86",
/* pixels */
"                                ",
"                                ",
"             XXXXXXX            ",
"           XXOO$$$OOXX          ",
"          XO$$=====$$OX         ",
"         XO$=========$OX        ",
"         X$===111111==$X        ",
"        XO$==11111111==OX       ",
"        X$==1111111111=$;       ",
"        X$===11======1=;;       ",
"        X$$===$=11111=;4;       ",
"        X$$$$$=111111124;       ",
"        XO$$$O=11@,11;44;       ",
"        XOOOO$=11:::,;43;       ",
"         XOO$=111:><;44;X       ",
"          XXOO$111:>243;X       ",
"            XOO$111;44;X        ",
"             XOOO=O;43;         ",
"           ++++XXX;44;.         ",
"          +#&-----243;.         ",
"         +#&--1...44;X.         ",
"        +#&--O.;;O43;X.         ",
"       +##&--$=.o;;%o..         ",
"       +#&&--X=1.oo;;%.         ",
"      +##&--&X$=11X....         ",
"      +#&&--*XX$=$XOXX          ",
"      +#&&--*O=XXXXXOOX         ",
"       +#&--=1$=$XXOOOX         ",
"        ++&-=111X  XXX          ",
"          ++XXXX                ",
"                                ",
"                                "
};
