/* XPM */
static char *_b335a023788427fc804a86a6a7ef849PIk8ROjs1vup1SR2[] = {
/* columns rows colors chars-per-pixel */
"32 32 26 1 ",
"  c None",
". c #0E0E10",
"X c #191919",
"o c #2E2300",
"O c #303032",
"+ c gray20",
"@ c #323234",
"# c #640A0E",
"$ c #4A3A08",
"% c #444444",
"& c gray29",
"* c #525254",
"= c #545456",
"- c #686868",
"; c #6D6D6D",
": c #6D6D6E",
"> c #737375",
", c #971E2A",
"< c #E53A52",
"1 c #885D61",
"2 c #846C6E",
"3 c #FA6B73",
"4 c #808080",
"5 c #939397",
"6 c #AEAEB2",
"7 c gray86",
/* pixels */
"                                ",
"                                ",
"             XXXXXXX            ",
"           XX++&&&++XX          ",
"          X+&&-----&&+X         ",
"         X+&---------&+X        ",
"         X&---444444--&X        ",
"        X+&--44444444--+X       ",
"        X&--4444444444-&X       ",
"        X&---44------4--X       ",
"        X&&---&-44444-4-X       ",
"        X&&&&&-4444444-&X       ",
"        X+&&&+-44#14444&X       ",
"        X++++&-44,,,144-X       ",
"         X++&-444,<3<,4-X       ",
"          XX++&444,<,2+&X       ",
"            X++&44444-&X        ",
"             X+@+-+;X@>>>>>>    ",
"           @@@@XXXXX>>6777>.    ",
"         @@%.==:;;>>67775>+.    ",
"       @@%%.*.**>>6777>>$oO.    ",
"      @%%=;.>O>>67775>.5$*O.    ",
"     @%==:X.>*6777>>X .5>*O.    ",
"    @%%=:+44O>775>XX  .5>o+.    ",
"    @%=:;&44+>+.-&+X  .5$oO.    ",
"    @==:;X&&.O>.&-4XX .>$o+.    ",
"    @%=:=@XX@.>.X&-4-X .5o.     ",
"     @%=@@@X++. X++-44X.>*.     ",
"      @%@@  XXX  X&444X ..      ",
"       @          XXXX          ",
"                                ",
"                                "
};
