/* XPM */
static char *_639143890722[] = {
/* columns rows colors chars-per-pixel */
"32 32 25 1 ",
"  c None",
". c #191919",
"X c #2E2300",
"o c #303032",
"O c gray20",
"+ c #323234",
"@ c #640A0E",
"# c #4A3A08",
"$ c #444444",
"% c gray29",
"& c #525254",
"* c #545456",
"= c #686868",
"- c #6D6D6E",
"; c #737375",
": c #971E2A",
"> c #E53A52",
", c #885D61",
"< c #846C6E",
"1 c #FA6B73",
"2 c #808080",
"3 c #939397",
"4 c #AEAEB2",
"5 c gray86",
"6 c #0E0E10",
/* pixels */
"                                ",
"                                ",
"             .......            ",
"           ..OO%%%OO..          ",
"          .O%%=====%%O.         ",
"         .O%=========%O.        ",
"         .%===22222===%.        ",
"        .O%==2222222==%O.       ",
"  ;     .%%%=2222222=%%%.       ",
"  ;;    .%====22222====%.       ",
"  ;5;   .%=222=222=222=%.       ",
"  ;53   .%=2222===2222=%.       ",
"  ;55;  .%@,222222222,@%.       ",
"  ;55;  .O:::,22222,:::O.       ",
"  ;45;  .O:>1>:2=2:>1>:O.       ",
"  ;453   .%:>:<O%O<:>:%.        ",
"   ;55; ++.%=2222222=%.++       ",
"   ;55; $$+.O.=O=O=.O.+$$   666 ",
"   ;45;.O$$$.........$$$O666o&6 ",
"   ;453.2O****-OOO-***666O;&&O6 ",
"    ;55666.**-%2=2%-**6&;3oX#o6 ",
"    ;55o;;6%=22%%%22=%6&#X#X#o6 ",
"   6o&;;O6+.OO%OOO%OO.6&#X#o&o6 ",
"  6&;;oo6..%=%..O..%=%6&;3;&oO6 ",
"   6662=.+.O2=O.%.O=2O6&;;&X#o6 ",
"     +..++$.%2%OOO%2%.6&#X#X#o6 ",
"     +--+$$.=%.....%=.6&;X#X#O6 ",
"     +--+$$.%=O.$.O=%.$6o;#Xo6  ",
"      +-+++.=2%.+.%2=.++6O;&6   ",
"       +   .22=. .=22.   666    ",
"            ...   ...           ",
"                                "
};
