/* XPM */
static char *_ddbf59175bb452dc34e1acc97d303b9z9ToY3ezOxHSmEjd[] = {
/* columns rows colors chars-per-pixel */
"32 32 7 1 ",
"  c None",
". c #6D6970",
"X c #93909A",
"o c #9997A1",
"O c #A09EA8",
"+ c #B9B9B9",
"@ c #D9D9DD",
/* pixels */
"                                ",
"                                ",
"                                ",
"                                ",
"             .@@@+.             ",
"             .OOOO.             ",
"             .OOOX.             ",
"             .OOOX.             ",
"             .OOOO.             ",
"             .OOOX.             ",
"       .@@@@@.OOOX.+@@@@.       ",
"       .OOOOOOOOOOOOOOOO.       ",
"       .OOOOOOOOOOOOOOOO.       ",
"       .XOXOXXOOOOXXXOXX.       ",
"       .......OOOO.......       ",
"             .OOOO.             ",
"             .OOOX.             ",
"             .OOOO.             ",
"             .oOoX.             ",
"             .OoOo.             ",
"             .oOoX.             ",
"             .OoOX.             ",
"             .oooX.             ",
"             .oooX.             ",
"             .oooo.             ",
"             .oooX.             ",
"             .oooX.             ",
"             .oXXX.             ",
"             ......             ",
"                                ",
"                                ",
"                                "
};
