/* XPM */
static char *_1c231c4e26f4008b8c121fdf5d85f5aZlumMF5r2e2LOEhE[] = {
/* columns rows colors chars-per-pixel */
"33 32 100 2 ",
"   c #010101",
".  c #030301",
"X  c #000100",
"o  c #010000",
"O  c #0D0906",
"+  c #030000",
"@  c #080300",
"#  c #040000",
"$  c #040300",
"%  c #070803",
"&  c #000200",
"*  c #010300",
"=  c #020200",
"-  c #040402",
";  c #020300",
":  c #080703",
">  c #070602",
",  c #0C0704",
"<  c #070200",
"1  c #050000",
"2  c #0D0805",
"3  c #080401",
"4  c #090804",
"5  c #010200",
"6  c black",
"7  c #0B0A06",
"8  c #090401",
"9  c #060000",
"0  c #221A18",
"q  c #6F6A67",
"w  c #302C29",
"e  c #020100",
"r  c #030200",
"t  c #050601",
"y  c #010100",
"u  c #0E0E0C",
"i  c #0A0905",
"p  c #2E2926",
"a  c #B1ACA9",
"s  c #423E3B",
"d  c #060200",
"f  c #161614",
"g  c #040301",
"h  c #050100",
"j  c #060201",
"k  c #090504",
"l  c #0B0706",
"z  c #0A0605",
"x  c #080806",
"c  c #050402",
"v  c #070604",
"b  c #060503",
"n  c #20201E",
"m  c #0A0907",
"M  c #030502",
"N  c #21211F",
"B  c #1F1F1D",
"V  c #020401",
"C  c #050704",
"Z  c #0B0D0A",
"A  c #040603",
"S  c #070906",
"D  c #0D0F0C",
"F  c #000300",
"G  c #050503",
"H  c #0C0C0A",
"J  c #2D2D2B",
"K  c #2F2F2D",
"L  c #080403",
"P  c #272624",
"I  c #000501",
"U  c #000400",
"Y  c #272322",
"T  c #5B5756",
"R  c #1B1A18",
"E  c #090806",
"W  c #100F0D",
"Q  c #0D0C0A",
"!  c #080705",
"~  c #060604",
"^  c #070302",
"/  c #0B0B09",
"(  c #090B08",
")  c #0F0B0A",
"_  c #161211",
"`  c #0E0A09",
"'  c #120E0D",
"]  c #0C0807",
"[  c #31302E",
"{  c #686765",
"}  c #231F1E",
"|  c #999594",
" . c #4B4746",
".. c #100C0B",
"X. c #070705",
"o. c #1E1D1B",
"O. c #1E1A19",
"+. c #1A1615",
"@. c #0D0D0B",
"#. c #090907",
/* pixels */
"  . X o o o O + @ # + + $ o o X % & & * * * * * * & & & & & & * = ",
"  - ; : > + # # , < 1 2 3 o 4 5 X & & * * * * * * & & & & & & * * ",
"  6 X 7 o + 8 9 9 9 0 q w e r t % & & * * * * * * & & & & & & * * ",
"y u ; i o 3 # # 8 # p a s d o o X & & * * * * * * & & & & & & * * ",
"y f u - 6 e g h + j k l z j # # r y & & & & & & & * * & & & & & & ",
"y x . 6 6 6 = e o e c v b h + + e y & & & & & & & * * & & & & & & ",
"y 6 6 6 6 = - g g o r c g e o + e y & & & & & & & * * & & & & & & ",
"y y = . . . . g g o e r r e o + e y & & & & & & & * * & & & & & & ",
"y = = = y 6 6 6 y o e r r e e r r y & & & & & & & * * & & & & & & ",
"y = y y 6 6 6 y = e e r r r r r r y & & & & & & & * * & & & & & & ",
"y & & & & = = = = = = e e e r r e y & & & & & & & * * & & & & & & ",
"y X X X & = = 6 6 = = e o e e e e y & & & & & & & * * & & & & & & ",
"& & & & & & & y y n n = 6 m o o r y & & & & X X X M * X & M M * X ",
"& & & & & & & y y N B - 6 r o c x X X & & & & X X X X X X X X * V ",
"& & & & & & & & & 6 - 6 . - 6 6 6 X X & & & & & & & V M & X X C Z ",
"& & & & & & & & & 6 6 6 y 6 - x = & & & & & & * * V A C M X * S D ",
"& F F & & & & & & A & - = 6 . - 6 * & & & & & * * * * V * & & V A ",
"& F F & & & & & & X X . . . - 6 G V V * & X & & * & & X & & & X X ",
"& F F F F & & & & S V = 6 6 G H J A M * & X X & & * * * * * & X X ",
"& & & & & y y y y 6 6 - 6 y 6 G K C M V & X X X & X & & & X X X & ",
"6 o L m o P b o b r 6 6 y & X X X A & & & X X 6 = y . * X F I U & ",
"o j + z Y T Y e o g e 6 y V V * & & & F M M = . - 6 y 6 X X U I F ",
"6 e o o o R E o o e o 6 6 y = = & & U M * 6 6 o o o e y 6 X & I I ",
"y e W Q o o e ! c o r . y 6 6 y = * M * 6 6 o e o e r g = 6 X & U ",
"~ 6 6 6 . y . 6 6 o b E c o o r . & & 6 6 r b ^ # + + e g = y X & ",
"G / 6 6 y G - = ~ o g v r o e e o y 6 6 g c e + + + + o e g = 6 X ",
"y X M M X X X 6 6 o o e o ^ l ^ o . 6 o c h + + l l # + + r e 6 6 ",
"y & I V X ( X 6 = r r o r ) _ ` + r 6 o c h + ' Y _ ] # + r e 6 6 ",
"6 & F F F & & & y = 6 r c [ { ) + o - g e ] + } |  ...+ l o o G 6 ",
"= & F F F & & & & 6 X.g o v o.o g X.- g o h + + O.+.+ + k o o ~ 6 ",
"G & & & & & & & & 6 ~ 6 y y 6 6 y - 6 X.c o m L + + + g g o 6 - X ",
"~ & & & & & & & & 6 6 6 ~ @.6 #.6 A X G ~ o o z z ^ z g o y G * X "
};
