/* XPM */
static char *result[] = {
/* columns rows colors chars-per-pixel */
"32 32 15 1 ",
"  c #211F30",
". c #843346",
"X c #A14744",
"o c #B96E54",
"O c #E68D41",
"+ c #CF9E6E",
"@ c #F2BC7E",
"# c #EA71BD",
"$ c #2FACDA",
"% c #6CD9F1",
"& c #E4C997",
"* c #FBDFB1",
"= c #F89CC0",
"- c white",
"; c None",
/* pixels */
";;;;;;;;;;;;;;;;;;;;;;;;;;;;;;;;",
";;;;;;;;;;;;;;;;;;;;;;;;;;;;;;;;",
";;;;;;;;;;;;;;;;;;;;;;;;;;;;;;;;",
";;;;;;;;;;; ;;; ;;; ;;; ;;;;;;;;",
";;;;;;;;;; % ; = ; % ; = ;;;;;;;",
";;;;;;;;; $%% #== $%% #== ;;;;;;",
";;;;;;;   $%% #== $%% #==   ;;;;",
";;;;;; == $%% #== $%% #== %% ;;;",
";;;;;; ==# $   #   $   # $%% ;;;",
";;;;;;; ##               $$ ;;;;",
";;;;;;;;  X.&&+ X.oo+ +&&  ;;;;;",
";;;;;;; O X.+++ X.oo+ +++ ;;;;;;",
";;;;;; @O o...+ X.ooo +.. ;;;;;;",
";;;;;; @O o.--. X.oo+ .-- ;;;;;;",
";;;;; @@O o.--. X.ooo .-- ;;;;;;",
";;;;; @@O o...  X.ooo  .. ;;;;;;",
";;;;; @@O o.+ - X.ooo - + ;;;;;;",
";;;;; @@O o.+ . ..XXX X + ;;;;;;",
";;;;; O@O o.+ ..     .X + ;;;;;;",
";;;;;; @O X.+ ---.----- + ;;;;;;",
";;;;;; OO X.o+         +o ;;;;;;",
";;;;;;; OO X.ooooooooooo ;;;;;;;",
";;;;;;;   O             ;;;;;;;;",
";;;;;; @@@@OOOOOOOOOOO O ;;;;;;;",
";;;;; O@@O @@@@@@*@**@ OO ;;;;;;",
";;;;; OOO @@@@@@@@@**@ OO ;;;;;;",
";;;;;;   O@@@@@@@@@@@@   ;;;;;;;",
";;;;;;;; O@@        @@ ;;;;;;;;;",
";;;;;;;; O@O ;;;;; O@O ;;;;;;;;;",
";;;;;;;; OO ;;;;;; OO ;;;;;;;;;;",
";;;;;;;;;  ;;;;;;;;  ;;;;;;;;;;;",
";;;;;;;;;;;;;;;;;;;;;;;;;;;;;;;;"
};
