/* XPM */
static char *result[] = {
/* columns rows colors chars-per-pixel */
"32 32 118 2 ",
"   c #211F30",
".  c #21232F",
"X  c #21242E",
"o  c #21242F",
"O  c #22302A",
"+  c #223429",
"@  c #2C302D",
"#  c #303530",
"$  c #323532",
"%  c #422B30",
"&  c #452D30",
"*  c #4C2F30",
"=  c #483433",
"-  c #503130",
";  c #573330",
":  c #5E3630",
">  c #60392F",
",  c #603730",
"<  c #613730",
"1  c #633930",
"2  c #623A31",
"3  c #623B31",
"4  c #266B18",
"5  c #267316",
"6  c #277B13",
"7  c #0E5828",
"8  c #135D24",
"9  c #244E21",
"0  c #255320",
"q  c #357322",
"w  c #387A23",
"e  c #60721F",
"r  c #65791B",
"t  c #54552C",
"y  c #525C2C",
"u  c #7C412F",
"i  c #654033",
"p  c #604235",
"a  c #674535",
"s  c #684636",
"d  c #7E4631",
"f  c #7F4732",
"g  c #774F37",
"h  c #5C6E22",
"j  c #5C7D22",
"k  c #8E472F",
"l  c #984B2F",
"z  c #9B4D2F",
"x  c #824E35",
"c  c #875839",
"v  c #B96F3B",
"b  c #BF6F39",
"n  c #D2612F",
"m  c #C66332",
"M  c #D36330",
"N  c #D36430",
"B  c #D46531",
"V  c #D46631",
"C  c #D56731",
"Z  c #D66A33",
"A  c #D76C33",
"S  c #D76D34",
"D  c #D86E34",
"F  c #D76F3A",
"G  c #D97035",
"H  c #D97135",
"J  c #D97136",
"K  c #DA7236",
"L  c #DA7336",
"P  c #DB7437",
"I  c #DC7638",
"U  c #DC7738",
"Y  c #DE7A39",
"T  c #DE7B3A",
"R  c #DB783F",
"E  c #E07F3B",
"W  c #2A8610",
"Q  c #458B1B",
"!  c #478E19",
"~  c #458A1C",
"^  c #4B8B1F",
"/  c #4C9316",
"(  c #63981F",
")  c #699B1E",
"_  c #72A11D",
"`  c #4C8526",
"'  c #578D21",
"]  c #6C823A",
"[  c #77A521",
"{  c #8DB732",
"}  c #E1813C",
"|  c #E1823D",
" . c #E1833D",
".. c #E2843D",
"X. c #E2853E",
"o. c #E3863E",
"O. c #E4883F",
"+. c #E4893F",
"@. c #DF8243",
"#. c #E48940",
"$. c #E58B40",
"%. c #E58C41",
"&. c #E68C41",
"*. c #E68D41",
"=. c #E28847",
"-. c #E68F47",
";. c #E79045",
":. c #E5914D",
">. c #E7934C",
",. c #E28D53",
"<. c #E69556",
"1. c #E99850",
"2. c #E99A51",
"3. c #E5965D",
"4. c #EDA763",
"5. c #E9A469",
"6. c #F2BC7E",
"7. c None",
/* pixels */
"7.7.7.7.7.7.7.7.7.7.7.7.7.7.7.7.7.7.7.7.7.7.7.7.7.7.7.7.7.7.7.7.",
"7.7.7.7.7.7.7.7.7.7.7.7.7.7.7.7.7.7.7.7.7.7.7.7.7.7.7.7.7.7.7.7.",
"7.7.7.7.7.7.7.7.7.7.7.7.7.7.7.7.7.7.7.7.7.7.7.7.7.7.7.7.7.7.7.7.",
"7.7.7.7.7.7.7.7.7.7.7.7.7.7.7.7.7.7.7.7.7.7.7.7.7.7.7.7.7.7.7.7.",
"7.7.7.7.7.7.7.7.7.7.7.7.7.7.7.7.7.7.7.7.7.7.7.7.7.7.7.7.7.7.7.7.",
"7.7.7.7.7.7.7.7.7.7.7.7.7.7.@ # $ 7.7.7.7.7.7.7.7.7.7.7.7.7.7.7.",
"7.7.7.7.7.7.7.7.7.7.7.      j { ]       7.7.7.7.7.7.7.7.7.7.7.7.",
"7.7.7.7.7.7.7.7.7.7.7.O 5 7 ' [ ` 8 4 . 7.7.7.7.7.7.7.7.7.7.7.7.",
"7.7.7.7.7.7.7.7.7.7.7.+ W ^ ) _ ( ~ 6 X 7.7.7.7.7.7.7.7.7.7.7.7.",
"7.7.7.7.7.7.7.7.7.7.7.O 0 w ! / Q q 9 o 7.7.7.7.7.7.7.7.7.7.7.7.",
"7.7.7.7.7.7.7.7.7.7.7.7.> y e r h t : 7.7.7.7.7.7.7.7.7.7.7.7.7.",
"7.7.7.7.7.7.7.7.7.7.7.1 Z Z Z Z Z Z m * 7.7.7.7.7.7.7.7.7.7.7.7.",
"7.7.7.7.7.7.7.7.7.  < A *.*.$.$.%.*.O.B & 7.7.7.7.7.7.7.7.7.7.7.",
"7.7.7.7.7.7.7.7.7.  a +.*.*.G V I *.&.O.= 7.7.7.7.7.7.7.7.7.7.7.",
"7.7.7.7.7.7.7.7.7.g b S D #...<.,.S S S v p 7.7.7.7.7.7.7.7.7.7.",
"7.7.7.7.7.7.7.7.  c o.Y T $.*.1.:.@.3.3.-.s   7.7.7.7.7.7.7.7.7.",
"7.7.7.7.7.7.7.7.  x } *.*.*.E Y | 2.6.6.=.i   7.7.7.7.7.7.7.7.7.",
"7.7.7.7.7.7.7.7.  f P } } } K S Y >.5.5.R 3   7.7.7.7.7.7.7.7.7.",
"7.7.7.7.7.7.7.7.  c E V V V  .;.;. .V V X.s   7.7.7.7.7.7.7.7.7.",
"7.7.7.7.7.7.7.7.  c &.$.$.$.&.4.4.&.$.$.*.s   7.7.7.7.7.7.7.7.7.",
"7.7.7.7.7.7.7.7.  d U *.$.D Z F F L *.*.J 2   7.7.7.7.7.7.7.7.7.",
"7.7.7.7.7.7.7.7.  u C H G M n n n B H H N ,   7.7.7.7.7.7.7.7.7.",
"7.7.7.7.7.7.7.7.7.: z n n n n n n n n n k - 7.7.7.7.7.7.7.7.7.7.",
"7.7.7.7.7.7.7.7.7.7.; l l l l l l l l l % 7.7.7.7.7.7.7.7.7.7.7.",
"7.7.7.7.7.7.7.7.7.7.7.                  7.7.7.7.7.7.7.7.7.7.7.7.",
"7.7.7.7.7.7.7.7.7.7.7.7.7.7.7.7.7.7.7.7.7.7.7.7.7.7.7.7.7.7.7.7.",
"7.7.7.7.7.7.7.7.7.7.7.7.7.7.7.7.7.7.7.7.7.7.7.7.7.7.7.7.7.7.7.7.",
"7.7.7.7.7.7.7.7.7.7.7.7.7.7.7.7.7.7.7.7.7.7.7.7.7.7.7.7.7.7.7.7.",
"7.7.7.7.7.7.7.7.7.7.7.7.7.7.7.7.7.7.7.7.7.7.7.7.7.7.7.7.7.7.7.7.",
"7.7.7.7.7.7.7.7.7.7.7.7.7.7.7.7.7.7.7.7.7.7.7.7.7.7.7.7.7.7.7.7.",
"7.7.7.7.7.7.7.7.7.7.7.7.7.7.7.7.7.7.7.7.7.7.7.7.7.7.7.7.7.7.7.7.",
"7.7.7.7.7.7.7.7.7.7.7.7.7.7.7.7.7.7.7.7.7.7.7.7.7.7.7.7.7.7.7.7."
};
