/* XPM */
static char *result[] = {
/* columns rows colors chars-per-pixel */
"32 32 134 2 ",
"   c #070706",
".  c #090704",
"X  c #0E0B08",
"o  c #120D07",
"O  c #120E09",
"+  c #15110B",
"@  c #1C140C",
"#  c #1F180F",
"$  c #141413",
"%  c #1C1711",
"&  c #1E1913",
"*  c #1D1C1B",
"=  c #22160A",
"-  c #251A0D",
";  c #2C1C0D",
":  c #311E0D",
">  c #241D15",
",  c #2B1F10",
"<  c #221F1C",
"1  c #35210E",
"2  c #3A230F",
"3  c #2C2114",
"4  c #272018",
"5  c #352311",
"6  c #3A2511",
"7  c #3C2A15",
"8  c #34281B",
"9  c #3B2C1D",
"0  c #242321",
"q  c #292725",
"w  c #2C2927",
"e  c #2D2C2A",
"r  c #3D2F20",
"t  c #302F2F",
"y  c #3C3124",
"u  c #33312F",
"i  c #3C342D",
"p  c #343332",
"a  c #3B3631",
"s  c #3A3834",
"d  c #432B13",
"f  c #4A2E14",
"g  c #422F1B",
"h  c #4D3015",
"j  c #4B331A",
"k  c #533416",
"l  c #593717",
"z  c #523619",
"x  c #5A3718",
"c  c #55391B",
"v  c #5C3B1B",
"b  c #623E1C",
"n  c #433423",
"m  c #4E3720",
"M  c #4A3A26",
"N  c #4D3C2A",
"B  c #5B3F23",
"V  c #523F2A",
"C  c #403B36",
"Z  c #65411D",
"A  c #6C441E",
"S  c #71471F",
"D  c #71481F",
"F  c #5F4120",
"G  c #56442F",
"H  c #5C472D",
"J  c #47413B",
"K  c #554432",
"L  c #5A4733",
"P  c #5E4A35",
"I  c #5D4C38",
"U  c #654522",
"Y  c #6A4622",
"T  c #6C4924",
"R  c #62472B",
"E  c #63482C",
"W  c #6C4D29",
"Q  c #704720",
"!  c #744C23",
"~  c #794E24",
"^  c #724F28",
"/  c #755027",
"(  c #7C5126",
")  c #75522A",
"_  c #7C5429",
"`  c #7E582D",
"'  c #604D39",
"]  c #6F5635",
"[  c #65513A",
"{  c #68533B",
"}  c #6F583D",
"|  c #7C5A31",
" . c #775D3B",
".. c #7A5F3D",
"X. c #454443",
"o. c #4D4B4A",
"O. c #504F4D",
"+. c #5F5041",
"@. c #52504F",
"#. c #555452",
"$. c #595756",
"%. c #595856",
"&. c #625343",
"*. c #6A5743",
"=. c #6E5A43",
"-. c #6C5C4B",
";. c #755F47",
":. c #635D55",
">. c #766042",
",. c #786147",
"<. c #75624F",
"1. c #7C644C",
"2. c #676058",
"3. c #6D655D",
"4. c #776450",
"5. c #796754",
"6. c #7D6A56",
"7. c #7F6D58",
"8. c #746D64",
"9. c #805427",
"0. c #815629",
"q. c #855A2B",
"w. c #8A5D2D",
"e. c #825E33",
"r. c #895F30",
"t. c #8E612F",
"y. c #8C6130",
"u. c #906634",
"i. c #826E59",
"p. c #867057",
"a. c #87715A",
"s. c #8C755C",
"d. c #807F7D",
"f. c None",
/* pixels */
"f.f.f.f.f.f.f.f.f.f.f.f.f.f.f.f.f.f.f.f.f.f.f.f.f.f.f.f.f.f.f.f.",
"f.f.f.f.f.f.f.f.f.f.f.f.@ @ @ o ; = = - f.f.f.f.f.f.f.f.f.f.f.f.",
"f.f.f.f.f.f.f.f.f.@ @ = = - a @ n i 6 5 5 ; ; f.f.f.f.f.f.f.f.f.",
"f.f.f.f.f.f.f.f.@ - ; 6 d d 9 5 W j v c v z d 7 f.f.f.f.f.f.f.f.",
"f.f.f.f.f.f.@ = 3 2 j c v v v 7 r.Q A Y ~ T Z v h 6 f.f.f.f.f.f.",
"f.f.f.f.f.@ ; 5 f z v Y Y v v 7 r.T Y Y ( ~ ! T U c d f.f.f.f.f.",
"f.f.f.f.@ ; d z Z Z A ! U v d.8 >.3.A Y ( ~ _ ^ ~ b v Z f.f.f.f.",
"f.f.f.@ ; 7 v Y ~ A Y ! U c j 9 w.Y A U 0.! ~ ( ~ A A U U f.f.f.",
"f.f.f.= 6 l Y ~ ( A S ! U v v 7 y.Y Z U 0.! ~ ( ( A Q Y U f.f.f.",
"f.f.@ ; c b ! _ ` A Z W U v K 7 e.R A T w.S ~ ` ( Y b Y U v f.f.",
"f.@ - 6 T A ! ( 0.A b / W v :.7  .&.A ! w.D ! ` 9.A b T T v b f.",
"f.@ ; j 9.D D ` 0.A v / T v v g w.A A ! t.~ ! q._ S v ^ Y v v f.",
"f.@ 6 z q.! ~ ` ` A b ~ U Z v 7 r.Z Y T w.! ~ 0.` A b ^ U b v f.",
"- w d v w.~ ~ ` 0.A Z T U b 8.7  .-.! T w.~ ~ 0.( Y Z ! U U 8.) ",
"- > k U 0._ ( ( ~ A A T U U M 7 ` B ! T 0.` ( ( ~ A A ! Y b V | ",
"# 3 M [ ;.p.a.s.s.i.i.s.p.=.I y } { 1.s.s.s.a.s.s.i.6.;.[ P V H ",
"  e * * * $.e 0 0 p @.0 0 u @.$ q $.e 0 0 $.e 0 0 p O.< * e X.$ ",
"  @ + @ & > @ % = & > @ # & > O > > @ @ & , # @ & # > # & @ > @ ",
"3 d b T ( ~ ! ! ! U Q T Y x v d r.~ Y T 9.D ! W ! b Q T Y c v ) ",
"3 9 b Y 0.~ ! ~ ! A Y ) Y z K 7 e.R Q T w.~ ~ ( ! A A ^ Y c L ) ",
"; s b T q._ ~ ) ! b Y ~ U j :.8  .&.D ^ q.` ! ( ! b Y ! U j :.` ",
"3 f v U 0.~ ! ( ! Z Y T U c b 7 y.( A W 9.~ ! ! ! A A T F v v ) ",
"- f v Z ~ S ~ ~ ! b b Y v c c 7 y.! b Z ~ S ~ T ! b b Y v v v / ",
"- a j v ! S Y ! Y v b b v z :.7 } +.v b Y S ! Y Q v b U v c :.W ",
"- 3 f c U b Z Z b x v v c f r 5 W j l c A b Z Z Z x v c c f m U ",
"& 8 N K =.<.7.p.i.i.6.i.5.&.L r { I -.7.p.7.i.i.i.7.4.*.I K K K ",
"  s * * * #.e 0 0 t O.0 0 u O.$ q $.e 0 0 #.e 0 0 p o.< * q X.$ ",
". + + + + & + + + O & O + O & o @ & + O @ & + + @ O % O + O % X ",
"; : h z Y l l c v k f z z f f = U f c z A l l c v l f z c f d j ",
"; ; f j v f k z l f f f h d 6 = F f f j v f k j c f f d z d d j ",
"= u 2 7 h d d d f d 5 d d 5 #.@ m J d d k d d d f d 2 d d 2 X.7 ",
"@ = ; 1 d 2 2 6 d : : : 2 ; ; @ f : : 5 d 2 2 2 2 : : 5 : : ; 5 "
};
