/* XPM */
static char *f56b8261a1dc41eda313ce7ea57c2bc0XA19mcyGC0xIQepd[] = {
/* columns rows colors chars-per-pixel */
"32 32 26 1 ",
"  c None",
". c #0E0E10",
"X c #191919",
"o c #2E2300",
"O c #303032",
"+ c gray20",
"@ c #323234",
"# c #640A0E",
"$ c #4A3A08",
"% c #444444",
"& c gray29",
"* c #525254",
"= c #545456",
"- c #565657",
"; c #686868",
": c #6D6D6D",
"> c #6D6D6E",
", c #737375",
"< c #971E2A",
"1 c #E53A52",
"2 c #885D61",
"3 c #846C6E",
"4 c #FA6B73",
"5 c #808080",
"6 c #939397",
"7 c #AEAEB2",
/* pixels */
"                                ",
"                                ",
"             XXXXXXX            ",
"           XX++&&&++XX          ",
"          X+&&;;;;;&&+X         ",
"         X+&;;;;;;;;;&+X        ",
"         X&;;555555;;;&X        ",
"        X+;;55555555;;&+X       ",
"        X&;5555555555;;&X       ",
"        X;;5;;;;;;55;;;&X       ",
"        X;5;55555;&;;;&&X       ",
"        X&;5555555;&&&&&X       ",
"        X&55552#55;+&&&+X       ",
"        X;552<<<55;&++++X       ",
"        X;5<141<555;&++X        ",
"        X&+3<1<555&++XX         ",
"         X&;5,555&++X           ",
" ,,,,,,   X+X>+;+++X            ",
"  ,7777,,  .X..XXX@@@@          ",
"   ,,7777,,.+**....>=%@         ",
"     ,,7777.Oo,666.>>=%@        ",
"       ,,77.Oo$o$6.+>>=%@       ",
"         ,,.O*$o$6.&>>=%%@      ",
"           .O*,666.X>>==%@      ",
"           .+o*,66.X=>>=%%@     ",
"           .Oo$o$6.X->>==%@     ",
"          X.Oo$o6*.+->>==%@     ",
"          X+.o$,*.&5;>>=%@      ",
"           X.*,*.555;>=@@       ",
"             ... XXXX@@         ",
"                                ",
"                                "
};
