/* XPM */
static char *_11f2d5d2ea246cae076dd132272478emJ0doG8HA24hS8Bv[] = {
/* columns rows colors chars-per-pixel */
"32 32 7 1 ",
"  c #534F54",
". c #5E5A60",
"X c #6D6970",
"o c #77747C",
"O c #7D797F",
"+ c #86838C",
"@ c #939098",
/* pixels */
".                               ",
"OXXXXXXXXXXXXXXXXXXXXXXXXXXXXXX ",
"OX+@@@XX+@@@XX+@@@XX+@@@XX+@@@X ",
"OXo+o+XXo+o+XXo++@XXooo@XXooo@X ",
"OXo@XXXXo@XXXXo++@XXXXo@XXXXo@X ",
"OXo+XXXXo@XXXXooo+XXXXo@XXXXo+X ",
"OXXXXXXXo@XXXXXXXXXXXXo@XXXXXXX ",
"OXXXXXXXo@XXXXXXXXXXXXo@XXXXXXX ",
"OX+@@@@@+@XX+@@@@@@@XXo@@@@@@@X ",
"OXo+ooooo+XXo+ooooo@XXooooooo@X ",
"OXo@XXXXXXXXo@XXXXo@XXXXXXXXo@X ",
"OXo+XXXXXXXXo@XXXXo@XXXXXXXXo+X ",
"OXXXXXXX+@@@+@XXXXo@@@@@XXXXXXX ",
"OXXXXXXXo+ooo+XXXXooooo@XXXXXXX ",
"OX+@@@XXo@XXXX+@@@XXXXo@XX+@@@X ",
"OXo++@XXo@XXXXo++@XXXXo@XXo++@X ",
"OXo++@XXo@XXXXo++@XXXXo@XXo++@X ",
"OXooo+XXo@XXXXooo+XXXXo@XXooo+X ",
"OXXXXXXXo@@@@@XXXX+@@@+@XXXXXXX ",
"OXXXXXXXooooo@XXXXo+ooo+XXXXXXX ",
"OX+@XXXXXXXXo@XXXXo@XXXXXXXX+@X ",
"OXo@XXXXXXXXo@XXXXo@XXXXXXXX+@X ",
"OXo@@@@@@@XXo@@@@@+@XX+@@@@@+@X ",
"OXooooooo@XXooooooo+XXo+ooooo+X ",
"OXXXXXXXo@XXXXXXXXXXXXo@XXXXXXX ",
"OXXXXXXXo@XXXXXXXXXXXXo@XXXXXXX ",
"OX+@XXXXo@XXXX+@@@XXXXo@XXXX+@X ",
"OXo@XXXXo@XXXXo++@XXXXo@XXXXo@X ",
"OXo@@@XXo@@@XXo++@XXo++@XX+@+@X ",
"OXooo+XXooo+XXooo+XXooo+XXooo+X ",
"OXXXXXXXXXXXXXXXXXXXXXXXXXXXXXX ",
"OOOOOOOOOOOOOOOOOOOOOOOOOOOOOOO."
};
