/* XPM */
static char *result[] = {
/* columns rows colors chars-per-pixel */
"32 32 111 2 ",
"   c #010100",
".  c #090704",
"X  c #0D0905",
"o  c #0C0B0B",
"O  c #130C06",
"+  c #180F07",
"@  c #130D08",
"#  c #1B1007",
"$  c #13100D",
"%  c #1C130A",
"&  c #141313",
"*  c #191613",
"=  c #1B1815",
"-  c #1B1A1A",
";  c #22160A",
":  c #25190D",
">  c #2B1C0D",
",  c #321F0E",
"<  c #241C13",
"1  c #291F13",
"2  c #251E18",
"3  c #2F200F",
"4  c #33210F",
"5  c #39230F",
"6  c #2C2115",
"7  c #21201E",
"8  c #29221A",
"9  c #342313",
"0  c #3A2612",
"q  c #3A2815",
"w  c #3F2E1D",
"e  c #242423",
"r  c #2B2620",
"t  c #2D2A26",
"y  c #2C2B2B",
"u  c #342C25",
"i  c #34312D",
"p  c #39332D",
"a  c #353534",
"s  c #3B3630",
"d  c #3B3937",
"f  c #3C3C3C",
"g  c #402710",
"h  c #432C14",
"j  c #4A2F15",
"k  c #452F18",
"l  c #4B3016",
"z  c #46301C",
"x  c #4D3419",
"c  c #523417",
"v  c #523619",
"b  c #583719",
"n  c #54391B",
"m  c #5B3C1C",
"M  c #603D1B",
"N  c #433426",
"B  c #553B20",
"V  c #593F20",
"C  c #453E37",
"Z  c #5D401F",
"A  c #63411E",
"S  c #6B451F",
"D  c #5D4122",
"F  c #554029",
"G  c #5B442A",
"H  c #41403F",
"J  c #4E4339",
"K  c #524333",
"L  c #5F4D37",
"P  c #5C4E3C",
"I  c #624220",
"U  c #694621",
"Y  c #674926",
"T  c #6B4924",
"R  c #6E4F2B",
"E  c #704720",
"W  c #744B23",
"Q  c #784E25",
"!  c #755027",
"~  c #7C5226",
"^  c #70522E",
"/  c #7C552A",
"(  c #7F582C",
")  c #644C33",
"_  c #6F5536",
"`  c #6A553C",
"'  c #755936",
"]  c #434342",
"[  c #494746",
"{  c #4D4C4C",
"}  c #504D49",
"|  c #5E5245",
" . c #57524D",
".. c #5E554B",
"X. c #565451",
"o. c #655544",
"O. c #6D5A47",
"+. c #65594D",
"@. c #6E5B48",
"#. c #765C40",
"$. c #746555",
"%. c #786755",
"&. c #6A6968",
"*. c #716B65",
"=. c #72706E",
"-. c #787776",
";. c #7B7A78",
":. c #815527",
">. c #815629",
",. c #865B2C",
"<. c None",
/* pixels */
"<.<.<.<.<.<.<.<.<.<.<.<.. .   .     . . <.<.<.<.<.<.<.<.<.<.<.<.",
"<.<.<.<.<.<.<.<.<.<.O .                 X + <.<.<.<.<.<.<.<.<.<.",
"<.<.<.<.<.<.<.<.# O @ $                 = % % : <.<.<.<.<.<.<.<.",
"<.<.<.<.<.<.% + % % % $                 ; > 3 0 > 9 <.<.<.<.<.<.",
"<.<.<.<.<.; % ; 6 > > >                 > 9 q x j k h <.<.<.<.<.",
"<.<.<.<.; > 9 5 j 9 9 6                 6 9 q n c Z U l <.<.<.<.",
"<.<.<.: > q l j v q 9 8 .             . 8 9 q n c T ~ U x <.<.<.",
"<.<.; ; 5 n D v v q 9 >                 > 9 9 n b Y :.W T <.<.<.",
"<.<.; 4 l S T b v q 0 >                 3 q 9 v b T :.Q Q A <.<.",
"<.% : h b ~ Y c v 9 q 8                 r q 9 v c Y >.W ~ T l <.",
"<.# 3 n A ,.T c x q 9 6                 < 9 9 v v T ,.W ( W M <.",
"<.; q Y T ,.T v c 9 6 2                 < 9 q x c T ,.Q ,.Q A <.",
"6 2 j T ! ~ G K H r y $                 & t t C K G ~ ! ( Q o.L ",
"% > x ` %.*.{ [ = $ = O                 O = o - [ { *.%.#.W V ^ ",
"7 p  .f ;.= $ t < > 4 >                 > 6 > < u & - -.] =.$.` ",
". H $ * 6 k x v n q 6 8                 6 9 q n v m j 6 * & -.- ",
". : x T W / D c n q 1 6                 6 6 q n v D ~ Q T m w + ",
"1 h S ! ~ >.D c c q 6 >                 > > 9 n v D :.~ ! Q S R ",
"6 N U ! / >.D v v 0 4 > .               > 9 9 c x D / / / Q ` ' ",
"1 w U Q Q / m c l 9 6 r               . r 9 9 l c Z / Q ! Q ) ' ",
"> h A Q W ~ m j l 9 : :                 : > 4 j l m ~ W W W E / ",
"1 0 m I T W v h h 9 6 =                 = 6 6 j j c E W T U I / ",
"< u n A A A F J p e y &                 & y e p J F I A I m | _ ",
": 9 x O.+. .d  .- o * @                 @ = o - { d  .+.@.B n Y ",
"2 s ] a =.& $ r : ; > ;                 ; : ; > r & * =.a { ..P ",
"o ] & % 6 h h h 0 > ; #                 % : > 0 0 h 0 9 % & &.= ",
". % h m b M j 0 , > * =                 = ; : 4 5 j m b m l > $ ",
"> 4 x v j c q , > ; + @             . . O # ; > , h c j v m l A ",
"> 1 j h g g 4 : = % @ . o o o o & & - & $ O # ; : 9 j g j l z Z ",
"< u 9 0 5 5 : # o o & & - - e e y y y y y y 2 - ; ; 4 4 9 h J F ",
"; # > : + o @ & & - e y y y a f f f H H ] ] ] ] [ H p 8 : 4 , l ",
"+ . . . & & - e y y a f f ] ] ] [ [ { { { { { { { { { { { d r 9 "
};
