/* XPM */
static char *_639148567566[] = {
/* columns rows colors chars-per-pixel */
"32 32 21 1 ",
"  c #2E1E22",
". c #323234",
"X c #45321D",
"o c #433C2F",
"O c #534721",
"+ c #6C4F2D",
"@ c #545456",
"# c #685F41",
"$ c #77584A",
"% c #767678",
"& c #8B5E4A",
"* c #A26E46",
"= c #A77E5D",
"- c #887F61",
"; c #B69866",
": c #979799",
"> c #B7B7BB",
", c #C3B380",
"< c #D2D2D6",
"1 c white",
"2 c None",
/* pixels */
"22222222222222222222222222222222",
"2222222222222.......222222222222",
"22222222222..@@%%%@@..2222222222",
"2222222222.@%%:::::%%@.222222222",
"222222222.@%:::>>>:::%@.22222222",
"22222222.@%:::>>>>>:::%@.2222222",
"2222222.:%:::>>>>>>>:::%@.222222",
"2222222.<%:::>>>>>>>:::%%.222222",
"222222.:1:::::>>>>>:::::%@.22222",
"222222.:1:.@%%:::::%%@..%@.22222",
"222222:<1<:..@@@@@@@..:@.@.22222",
"22222.:1<1:::>>>>>>>::%%@.%.2222",
"22222.:1<1:@%%:::::%%@ @@.%.2222",
"22222.:<<<:           @:@.@.2222",
"22222..:<::@         @:%@...2222",
"222222.:<:%::>>>>>>>::%@...22222",
"222222.o##.@%%:::::%%@..@@.22222",
"2222222o-#.*;,,,,,,,;*.%@.222222",
"222222.o-#.X+*;;;;;*+X...%.22222",
"22222.%o-o:@XXXXXXXXX@%>::%.2222",
"22222.@o-o:.@%:%%%:%@.@::%@.2222",
"222222.o-o@%:>>:::>>:%.@@.&O2222",
"22222.@o-o.%::%@@@%::%..O&&O2222",
"22222.%o-oO..@@%:%@@...22OO22222",
"222222O&==O@@..@@@..@%@.22222222",
"222222O$&&O%>%@>>>@%:>%@.2222222",
"2222222OOO@:>.%:>:%..>:@.2222222",
"2222222o#o.:.@.%:%.%@.>.22222222",
"2222222o#o2.&&&...:>:@.222222222",
"2222222o#o22OOO22$==&O2222222222",
"2222222o#o2222222$===O2222222222",
"22222222222222222222222222222222"
};
