/* XPM */
static char *_639148597456[] = {
/* columns rows colors chars-per-pixel */
"32 32 21 1 ",
"  c #2E1E22",
". c #323234",
"X c #45321D",
"o c #433C2F",
"O c #534721",
"+ c #6C4F2D",
"@ c #545456",
"# c #685F41",
"$ c #77584A",
"% c #767678",
"& c #8B5E4A",
"* c #A26E46",
"= c #A77E5D",
"- c #887F61",
"; c #B69866",
": c #979799",
"> c #B7B7BB",
", c #C3B380",
"< c #D2D2D6",
"1 c white",
"2 c None",
/* pixels */
"22222222222222222222222222222222",
"2222222222222.......222222222222",
"22222222222..@@%%%@@..2222222222",
"2222222222.@%%:::::%%@.222222222",
"222222222.@%:::>>>:::%@.22222222",
"22222222.@%:::>>>>>:::%@.2222222",
"2222222.@%:::>>>>>>>:::%@.222222",
"2222222.%%:::>>>>>>>:::%%.222222",
"222222.@%:::::>>>>>:::::%@.22222",
"222222.@%::::::%...%%::%@..22222",
"222222.@%:::::%.%::@@@@@.:@.2222",
"222222.@%%:%@@.%:>>>>>>::%@.2222",
"222222.@%%%@:>@%> %::::%%@.22222",
"222222.@@%.:@@>@>@        ..2222",
"222222.@@@.%..:@:>@       @.2222",
"222222.@@@.@..:.@:>>>:::%@.22222",
"2222222.@@@.@%..,@%::%%@..222222",
"22222222.@@@..@.,,,,,;*X22222222",
"22222222.@@@@%@.;;;**+X222222222",
"2222222.@%:>%@.XXXXXXX2222222222",
"22222222......%.@%:%%@.222222222",
"2222222222.:>>:@%>>:%@::<<<::222",
"2222222222....:.%:>oo:<<11111:22",
"222222222.@:>%oooo#-#<1111<::222",
"22222222O&==o#-----#oo:::::22222",
"222222ooo$==--#ooooo%.2222222222",
"22222o###O$&ooo::.::%.2222222222",
"22222oooo2OO&.%%.@%&OO2222222222",
"22222222222O&&..O@&&==O222222222",
"222222222222OOO22O$===O222222222",
"222222222222222222OOOO2222222222",
"22222222222222222222222222222222"
};
