/* XPM */
static char *_639148611749[] = {
/* columns rows colors chars-per-pixel */
"32 32 19 1 ",
"  c #323234",
". c #433C2F",
"X c #534721",
"o c #545456",
"O c #685F41",
"+ c #77584A",
"@ c #705654",
"# c #767678",
"$ c #8B5E4A",
"% c #A77E5D",
"& c #887F61",
"* c #8F7772",
"= c #979799",
"- c #A48D87",
"; c #B7A099",
": c #B7B7BB",
"> c #D2D2D6",
", c white",
"< c None",
/* pixels */
"<<<<<<<<<<<<<<<<<<<<<<<<<<<<<<<<",
"<<<<<<<<<<<<<       <<<<<<<<<<<<",
"<<<<<<<<<<<  oo###oo  <<<<<<<<<<",
"<<<<<<<<<< o##=====##o <<<<<<<<<",
"<<<<<<<<< o#===:::===#o <<<<<<<<",
"<<<<<<<< o#===:::::===#o <<<<<<<",
"<<<<<<< o#===:::::::===#o <<<<<<",
"<<<<<<< ##===:::::::===## <<<<<<",
"<<<<<< o#=====:::::=====#o <<<<=",
"<<<<<< o#===============#o <<<==",
"<<<<<< o#===============#o <<=>=",
"<<<<< # o#=============#o # =>>=",
"<<<<< # o##===========##o # =>,=",
"<<<<< o oo###=======###oo o >,,=",
"<<<<<   ooo###########ooo   >,>=",
"<<<<<< oooooo#######oooooo <.>=<",
"<<<<<< o#ooooooooooooooo#o <.O.<",
"<<<<<<< o##ooooooooooo##o <.&O.<",
"<<<<<< o  o###=====###o  o .&.<<",
"<<<<< #=:=   ooooooo   =:=# &.<<",
"<<<<< o#==o o#######o #:::o O.<<",
"<<<<<< ooo ##=======##  o##o <<<",
"<<<<<< o## o##=====##o #=:%$X<<<",
"<<<<<<<X$$X oo#####oo   #%%$X<<<",
"<<<<<<<<XX o   ooo   o  X.&.X<<<",
"<<<<<<<<< o#:*-;-;-*:#o .&O.<<<<",
"<<<<<<<<< o=:-@@@@@*:=o .&.<<<<<",
"<<<<<<<<<< =-;-XXX@@@= .&O.<<<<<",
"<<<<<<<<<<< #==  X$$$X<.&.<<<<<<",
"<<<<<<<<<<<X$%%+<<XXX<<..<<<<<<<",
"<<<<<<<<<<<X%%%+<<<<<<<<<<<<<<<<",
"<<<<<<<<<<<<<<<<<<<<<<<<<<<<<<<<"
};
